<svg xmlns="http://www.w3.org/2000/svg" xmlns:xlink="http://www.w3.org/1999/xlink" version="1.1" class="marks" width="747" height="564" viewBox="0 0 747 564"><rect width="747" height="564" fill="white"/><g fill="none" stroke-miterlimit="10" transform="translate(41,27)"><g class="mark-group role-frame root" role="graphics-object" aria-roledescription="group mark container"><g transform="translate(0,0)"><path class="background" aria-hidden="true" d="M0.5,0.5h700v500h-700Z" stroke="#ddd"/><g><g class="mark-group role-axis" aria-hidden="true"><g transform="translate(0.5,500.5)"><path class="background" aria-hidden="true" d="M0,0h0v0h0Z" pointer-events="none"/><g><g class="mark-rule role-axis-grid" pointer-events="none"><line transform="translate(0,-500)" x2="0" y2="500" stroke="#ddd" stroke-width="1" opacity="1"/><line transform="translate(44,-500)" x2="0" y2="500" stroke="#ddd" stroke-width="1" opacity="1"/><line transform="translate(88,-500)" x2="0" y2="500" stroke="#ddd" stroke-width="1" opacity="1"/><line transform="translate(131,-500)" x2="0" y2="500" stroke="#ddd" stroke-width="1" opacity="1"/><line transform="translate(175,-500)" x2="0" y2="500" stroke="#ddd" stroke-width="1" opacity="1"/><line transform="translate(219,-500)" x2="0" y2="500" stroke="#ddd" stroke-width="1" opacity="1"/><line transform="translate(263,-500)" x2="0" y2="500" stroke="#ddd" stroke-width="1" opacity="1"/><line transform="translate(306,-500)" x2="0" y2="500" stroke="#ddd" stroke-width="1" opacity="1"/><line transform="translate(350,-500)" x2="0" y2="500" stroke="#ddd" stroke-width="1" opacity="1"/><line transform="translate(394,-500)" x2="0" y2="500" stroke="#ddd" stroke-width="1" opacity="1"/><line transform="translate(438,-500)" x2="0" y2="500" stroke="#ddd" stroke-width="1" opacity="1"/><line transform="translate(481,-500)" x2="0" y2="500" stroke="#ddd" stroke-width="1" opacity="1"/><line transform="translate(525,-500)" x2="0" y2="500" stroke="#ddd" stroke-width="1" opacity="1"/><line transform="translate(569,-500)" x2="0" y2="500" stroke="#ddd" stroke-width="1" opacity="1"/><line transform="translate(613,-500)" x2="0" y2="500" stroke="#ddd" stroke-width="1" opacity="1"/><line transform="translate(656,-500)" x2="0" y2="500" stroke="#ddd" stroke-width="1" opacity="1"/><line transform="translate(700,-500)" x2="0" y2="500" stroke="#ddd" stroke-width="1" opacity="1"/></g></g><path class="foreground" aria-hidden="true" d="" pointer-events="none" display="none"/></g></g><g class="mark-group role-axis" aria-hidden="true"><g transform="translate(0.5,0.5)"><path class="background" aria-hidden="true" d="M0,0h0v0h0Z" pointer-events="none"/><g><g class="mark-rule role-axis-grid" pointer-events="none"><line transform="translate(0,500)" x2="700" y2="0" stroke="#ddd" stroke-width="1" opacity="1"/><line transform="translate(0,450)" x2="700" y2="0" stroke="#ddd" stroke-width="1" opacity="1"/><line transform="translate(0,400)" x2="700" y2="0" stroke="#ddd" stroke-width="1" opacity="1"/><line transform="translate(0,350)" x2="700" y2="0" stroke="#ddd" stroke-width="1" opacity="1"/><line transform="translate(0,300)" x2="700" y2="0" stroke="#ddd" stroke-width="1" opacity="1"/><line transform="translate(0,250)" x2="700" y2="0" stroke="#ddd" stroke-width="1" opacity="1"/><line transform="translate(0,200)" x2="700" y2="0" stroke="#ddd" stroke-width="1" opacity="1"/><line transform="translate(0,150)" x2="700" y2="0" stroke="#ddd" stroke-width="1" opacity="1"/><line transform="translate(0,100)" x2="700" y2="0" stroke="#ddd" stroke-width="1" opacity="1"/><line transform="translate(0,50)" x2="700" y2="0" stroke="#ddd" stroke-width="1" opacity="1"/><line transform="translate(0,0)" x2="700" y2="0" stroke="#ddd" stroke-width="1" opacity="1"/></g></g><path class="foreground" aria-hidden="true" d="" pointer-events="none" display="none"/></g></g><g class="mark-group role-axis" role="graphics-symbol" aria-roledescription="axis" aria-label="X-axis titled '# images in each notebook' for a linear scale with values from 0 to 160"><g transform="translate(0.5,500.5)"><path class="background" aria-hidden="true" d="M0,0h0v0h0Z" pointer-events="none"/><g><g class="mark-rule role-axis-tick" pointer-events="none"><line transform="translate(0,0)" x2="0" y2="5" stroke="#888" stroke-width="1" opacity="1"/><line transform="translate(44,0)" x2="0" y2="5" stroke="#888" stroke-width="1" opacity="1"/><line transform="translate(88,0)" x2="0" y2="5" stroke="#888" stroke-width="1" opacity="1"/><line transform="translate(131,0)" x2="0" y2="5" stroke="#888" stroke-width="1" opacity="1"/><line transform="translate(175,0)" x2="0" y2="5" stroke="#888" stroke-width="1" opacity="1"/><line transform="translate(219,0)" x2="0" y2="5" stroke="#888" stroke-width="1" opacity="1"/><line transform="translate(263,0)" x2="0" y2="5" stroke="#888" stroke-width="1" opacity="1"/><line transform="translate(306,0)" x2="0" y2="5" stroke="#888" stroke-width="1" opacity="1"/><line transform="translate(350,0)" x2="0" y2="5" stroke="#888" stroke-width="1" opacity="1"/><line transform="translate(394,0)" x2="0" y2="5" stroke="#888" stroke-width="1" opacity="1"/><line transform="translate(438,0)" x2="0" y2="5" stroke="#888" stroke-width="1" opacity="1"/><line transform="translate(481,0)" x2="0" y2="5" stroke="#888" stroke-width="1" opacity="1"/><line transform="translate(525,0)" x2="0" y2="5" stroke="#888" stroke-width="1" opacity="1"/><line transform="translate(569,0)" x2="0" y2="5" stroke="#888" stroke-width="1" opacity="1"/><line transform="translate(613,0)" x2="0" y2="5" stroke="#888" stroke-width="1" opacity="1"/><line transform="translate(656,0)" x2="0" y2="5" stroke="#888" stroke-width="1" opacity="1"/><line transform="translate(700,0)" x2="0" y2="5" stroke="#888" stroke-width="1" opacity="1"/></g><g class="mark-text role-axis-label" pointer-events="none"><text text-anchor="start" transform="translate(0,15)" font-family="sans-serif" font-size="10px" fill="#000" opacity="1">0</text><text text-anchor="middle" transform="translate(43.75,15)" font-family="sans-serif" font-size="10px" fill="#000" opacity="1">10</text><text text-anchor="middle" transform="translate(87.5,15)" font-family="sans-serif" font-size="10px" fill="#000" opacity="1">20</text><text text-anchor="middle" transform="translate(131.25,15)" font-family="sans-serif" font-size="10px" fill="#000" opacity="1">30</text><text text-anchor="middle" transform="translate(175,15)" font-family="sans-serif" font-size="10px" fill="#000" opacity="1">40</text><text text-anchor="middle" transform="translate(218.75,15)" font-family="sans-serif" font-size="10px" fill="#000" opacity="1">50</text><text text-anchor="middle" transform="translate(262.5,15)" font-family="sans-serif" font-size="10px" fill="#000" opacity="1">60</text><text text-anchor="middle" transform="translate(306.25,15)" font-family="sans-serif" font-size="10px" fill="#000" opacity="1">70</text><text text-anchor="middle" transform="translate(350,15)" font-family="sans-serif" font-size="10px" fill="#000" opacity="1">80</text><text text-anchor="middle" transform="translate(393.75,15)" font-family="sans-serif" font-size="10px" fill="#000" opacity="1">90</text><text text-anchor="middle" transform="translate(437.5,15)" font-family="sans-serif" font-size="10px" fill="#000" opacity="1">100</text><text text-anchor="middle" transform="translate(481.25,15)" font-family="sans-serif" font-size="10px" fill="#000" opacity="1">110</text><text text-anchor="middle" transform="translate(525,15)" font-family="sans-serif" font-size="10px" fill="#000" opacity="1">120</text><text text-anchor="middle" transform="translate(568.75,15)" font-family="sans-serif" font-size="10px" fill="#000" opacity="1">130</text><text text-anchor="middle" transform="translate(612.5,15)" font-family="sans-serif" font-size="10px" fill="#000" opacity="1">140</text><text text-anchor="middle" transform="translate(656.25,15)" font-family="sans-serif" font-size="10px" fill="#000" opacity="1">150</text><text text-anchor="end" transform="translate(700,15)" font-family="sans-serif" font-size="10px" fill="#000" opacity="1">160</text></g><g class="mark-rule role-axis-domain" pointer-events="none"><line transform="translate(0,0)" x2="700" y2="0" stroke="#888" stroke-width="1" opacity="1"/></g><g class="mark-text role-axis-title" pointer-events="none"><text text-anchor="middle" transform="translate(350,30)" font-family="sans-serif" font-size="11px" font-weight="bold" fill="#000" opacity="1"># images in each notebook</text></g></g><path class="foreground" aria-hidden="true" d="" pointer-events="none" display="none"/></g></g><g class="mark-group role-axis" role="graphics-symbol" aria-roledescription="axis" aria-label="Y-axis titled 'Percentile' for a linear scale with values from 0.0 to 1.0"><g transform="translate(0.5,0.5)"><path class="background" aria-hidden="true" d="M0,0h0v0h0Z" pointer-events="none"/><g><g class="mark-rule role-axis-tick" pointer-events="none"><line transform="translate(0,500)" x2="-5" y2="0" stroke="#888" stroke-width="1" opacity="1"/><line transform="translate(0,450)" x2="-5" y2="0" stroke="#888" stroke-width="1" opacity="1"/><line transform="translate(0,400)" x2="-5" y2="0" stroke="#888" stroke-width="1" opacity="1"/><line transform="translate(0,350)" x2="-5" y2="0" stroke="#888" stroke-width="1" opacity="1"/><line transform="translate(0,300)" x2="-5" y2="0" stroke="#888" stroke-width="1" opacity="1"/><line transform="translate(0,250)" x2="-5" y2="0" stroke="#888" stroke-width="1" opacity="1"/><line transform="translate(0,200)" x2="-5" y2="0" stroke="#888" stroke-width="1" opacity="1"/><line transform="translate(0,150)" x2="-5" y2="0" stroke="#888" stroke-width="1" opacity="1"/><line transform="translate(0,100)" x2="-5" y2="0" stroke="#888" stroke-width="1" opacity="1"/><line transform="translate(0,50)" x2="-5" y2="0" stroke="#888" stroke-width="1" opacity="1"/><line transform="translate(0,0)" x2="-5" y2="0" stroke="#888" stroke-width="1" opacity="1"/></g><g class="mark-text role-axis-label" pointer-events="none"><text text-anchor="end" transform="translate(-7,503)" font-family="sans-serif" font-size="10px" fill="#000" opacity="1">0.0</text><text text-anchor="end" transform="translate(-7,453)" font-family="sans-serif" font-size="10px" fill="#000" opacity="1">0.1</text><text text-anchor="end" transform="translate(-7,403)" font-family="sans-serif" font-size="10px" fill="#000" opacity="1">0.2</text><text text-anchor="end" transform="translate(-7,353)" font-family="sans-serif" font-size="10px" fill="#000" opacity="1">0.3</text><text text-anchor="end" transform="translate(-7,303)" font-family="sans-serif" font-size="10px" fill="#000" opacity="1">0.4</text><text text-anchor="end" transform="translate(-7,253)" font-family="sans-serif" font-size="10px" fill="#000" opacity="1">0.5</text><text text-anchor="end" transform="translate(-7,203)" font-family="sans-serif" font-size="10px" fill="#000" opacity="1">0.6</text><text text-anchor="end" transform="translate(-7,153.00000000000003)" font-family="sans-serif" font-size="10px" fill="#000" opacity="1">0.7</text><text text-anchor="end" transform="translate(-7,102.99999999999997)" font-family="sans-serif" font-size="10px" fill="#000" opacity="1">0.8</text><text text-anchor="end" transform="translate(-7,52.999999999999986)" font-family="sans-serif" font-size="10px" fill="#000" opacity="1">0.9</text><text text-anchor="end" transform="translate(-7,3)" font-family="sans-serif" font-size="10px" fill="#000" opacity="1">1.0</text></g><g class="mark-rule role-axis-domain" pointer-events="none"><line transform="translate(0,500)" x2="0" y2="-500" stroke="#888" stroke-width="1" opacity="1"/></g><g class="mark-text role-axis-title" pointer-events="none"><text text-anchor="middle" transform="translate(-24.916666984558105,250) rotate(-90) translate(0,-2)" font-family="sans-serif" font-size="11px" font-weight="bold" fill="#000" opacity="1">Percentile</text></g></g><path class="foreground" aria-hidden="true" d="" pointer-events="none" display="none"/></g></g><g class="mark-line role-mark marks" role="graphics-object" aria-roledescription="line mark container"><path aria-label="# images in each notebook: 1; Percentile: 0.00257731958763" role="graphics-symbol" aria-roledescription="line mark" d="M4.375,498.7113402061856L4.375,497.42268041237116L4.375,496.1340206185567L4.375,494.8453608247423L4.375,493.55670103092785L4.375,492.26804123711344L4.375,490.97938144329896L4.375,489.69072164948454L4.375,488.40206185567007L4.375,487.11340206185565L4.375,485.82474226804123L4.375,484.5360824742268L4.375,483.2474226804124L4.375,481.9587628865979L4.375,480.6701030927835L4.375,479.3814432989691L4.375,478.09278350515467L4.375,476.8041237113402L4.375,475.5154639175257L4.375,474.2268041237113L4.375,472.9381443298969L4.375,471.64948453608247L4.375,470.36082474226805L4.375,469.07216494845363L4.375,467.78350515463916L4.375,466.49484536082474L4.375,465.2061855670103L4.375,463.9175257731959L4.375,462.6288659793815L4.375,461.340206185567L4.375,460.0515463917526L4.375,458.7628865979381L4.375,457.4742268041237L4.375,456.1855670103093L4.375,454.89690721649487L4.375,453.6082474226804L4.375,452.319587628866L4.375,451.03092783505156L4.375,449.74226804123714L4.375,448.4536082474227L4.375,447.16494845360825L4.375,445.8762886597938L4.375,444.58762886597935L4.375,443.29896907216494L4.375,442.0103092783505L4.375,440.72164948453604L4.375,439.4329896907216L4.375,438.1443298969072L4.375,436.8556701030928L4.375,435.5670103092784L4.375,434.27835051546396L4.375,432.9896907216495L4.375,431.70103092783506L4.375,430.41237113402065L4.375,429.1237113402062L4.375,427.8350515463918L4.375,426.5463917525773L4.375,425.25773195876286L4.375,423.96907216494844L4.375,422.680412371134L4.375,421.3917525773196L4.375,420.10309278350513L4.375,418.8144329896907L4.375,417.5257731958763L4.375,416.2371134020619L4.375,414.9484536082474L4.375,413.659793814433L4.375,412.3711340206185L4.375,411.0824742268041L4.375,409.7938144329897L4.375,408.50515463917526L4.375,407.21649484536084L4.375,405.92783505154637L4.375,404.63917525773195L4.375,403.35051546391753L4.375,402.0618556701031L8.75,400.7731958762887L8.75,399.4845360824743L8.75,398.1958762886598L8.75,396.9072164948454L8.75,395.6185567010309L8.75,394.3298969072165L8.75,393.0412371134021L8.75,391.7525773195876L8.75,390.4639175257732L8.75,389.17525773195877L8.75,387.88659793814435L8.75,386.59793814432993L8.75,385.30927835051546L8.75,384.020618556701L8.75,382.73195876288656L8.75,381.44329896907215L8.75,380.1546391752577L8.75,378.8659793814433L8.75,377.57731958762884L8.75,376.2886597938144L8.75,375L8.75,373.7113402061856L8.75,372.42268041237116L8.75,371.1340206185567L8.75,369.8453608247423L8.75,368.55670103092785L8.75,367.26804123711344L8.75,365.979381443299L8.75,364.69072164948454L8.75,363.4020618556701L8.75,362.11340206185565L8.75,360.82474226804123L8.75,359.5360824742268L8.75,358.2474226804124L8.75,356.9587628865979L8.75,355.6701030927835L8.75,354.38144329896903L8.75,353.0927835051546L8.75,351.8041237113402L8.75,350.5154639175257L8.75,349.2268041237113L8.75,347.9381443298969L8.75,346.64948453608247L8.75,345.36082474226805L8.75,344.07216494845363L8.75,342.78350515463916L13.125,341.49484536082474L13.125,340.2061855670103L13.125,338.9175257731959L13.125,337.6288659793815L13.125,336.340206185567L13.125,335.0515463917526L13.125,333.7628865979382L13.125,332.47422680412376L13.125,331.1855670103093L13.125,329.89690721649487L13.125,328.6082474226804L13.125,327.319587628866L13.125,326.03092783505156L13.125,324.74226804123714L13.125,323.45360824742266L13.125,322.1649484536082L13.125,320.8762886597938L13.125,319.58762886597935L13.125,318.29896907216494L13.125,317.0103092783505L13.125,315.72164948453604L13.125,314.4329896907216L13.125,313.1443298969072L13.125,311.8556701030928L13.125,310.5670103092784L13.125,309.27835051546396L13.125,307.9896907216495L13.125,306.70103092783506L13.125,305.41237113402065L13.125,304.1237113402062L13.125,302.8350515463918L13.125,301.54639175257734L13.125,300.25773195876286L13.125,298.96907216494844L13.125,297.680412371134L13.125,296.3917525773196L13.125,295.10309278350513L13.125,293.8144329896907L13.125,292.52577319587624L13.125,291.2371134020618L13.125,289.9484536082474L13.125,288.659793814433L13.125,287.3711340206185L13.125,286.0824742268041L13.125,284.7938144329897L13.125,283.50515463917526L13.125,282.21649484536084L17.5,280.92783505154637L17.5,279.63917525773195L17.5,278.35051546391753L17.5,277.0618556701031L17.5,275.7731958762887L17.5,274.4845360824743L17.5,273.1958762886598L17.5,271.9072164948454L17.5,270.61855670103097L17.5,269.3298969072165L17.5,268.0412371134021L17.5,266.7525773195876L17.5,265.4639175257732L17.5,264.17525773195877L17.5,262.88659793814435L17.5,261.5979381443299L17.5,260.30927835051546L17.5,259.020618556701L17.5,257.73195876288656L17.5,256.44329896907215L17.5,255.15463917525773L17.5,253.86597938144328L17.5,252.57731958762886L17.5,251.28865979381442L17.5,250L17.5,248.71134020618558L17.5,247.42268041237114L17.5,246.13402061855672L17.5,244.84536082474227L17.5,243.55670103092785L17.5,242.26804123711344L17.5,240.97938144329893L17.5,239.69072164948452L21.875,238.4020618556701L21.875,237.11340206185565L21.875,235.82474226804123L21.875,234.53608247422682L21.875,233.24742268041237L21.875,231.95876288659795L21.875,230.6701030927835L21.875,229.3814432989691L21.875,228.09278350515467L21.875,226.80412371134022L21.875,225.51546391752575L21.875,224.22680412371133L21.875,222.9381443298969L21.875,221.64948453608247L21.875,220.36082474226802L21.875,219.0721649484536L21.875,217.7835051546392L21.875,216.49484536082474L21.875,215.20618556701032L21.875,213.9175257731959L21.875,212.62886597938146L21.875,211.34020618556704L21.875,210.05154639175257L21.875,208.76288659793812L21.875,207.4742268041237L21.875,206.18556701030926L21.875,204.89690721649484L26.25,203.60824742268042L26.25,202.31958762886597L26.25,201.03092783505156L26.25,199.74226804123714L26.25,198.4536082474227L26.25,197.16494845360828L26.25,195.87628865979383L26.25,194.58762886597935L26.25,193.29896907216494L26.25,192.0103092783505L26.25,190.72164948453607L26.25,189.43298969072166L26.25,188.1443298969072L26.25,186.8556701030928L26.25,185.56701030927834L26.25,184.27835051546393L26.25,182.9896907216495L26.25,181.70103092783506L26.25,180.41237113402065L26.25,179.12371134020617L26.25,177.83505154639172L26.25,176.5463917525773L26.25,175.25773195876286L26.25,173.96907216494844L26.25,172.68041237113403L26.25,171.39175257731958L30.624999999999996,170.10309278350516L30.624999999999996,168.81443298969074L30.624999999999996,167.5257731958763L30.624999999999996,166.23711340206188L30.624999999999996,164.94845360824743L30.624999999999996,163.65979381443296L30.624999999999996,162.37113402061854L30.624999999999996,161.0824742268041L30.624999999999996,159.79381443298968L30.624999999999996,158.50515463917526L30.624999999999996,157.2164948453608L30.624999999999996,155.9278350515464L30.624999999999996,154.63917525773198L30.624999999999996,153.35051546391753L30.624999999999996,152.0618556701031L30.624999999999996,150.77319587628867L30.624999999999996,149.48453608247425L35,148.19587628865978L35,146.90721649484533L35,145.6185567010309L35,144.3298969072165L35,143.04123711340205L35,141.75257731958763L35,140.46391752577318L35,139.17525773195877L35,137.88659793814435L35,136.5979381443299L35,135.30927835051548L35,134.02061855670107L35,132.73195876288656L35,131.44329896907215L35,130.15463917525773L35,128.86597938144328L35,127.57731958762886L39.375,126.28865979381443L39.375,125L39.375,123.71134020618557L39.375,122.42268041237114L39.375,121.13402061855672L39.375,119.84536082474229L39.375,118.55670103092785L39.375,117.26804123711344L39.375,115.97938144329895L39.375,114.69072164948452L43.75,113.40206185567008L43.75,112.11340206185567L43.75,110.82474226804123L43.75,109.5360824742268L43.75,108.24742268041237L43.75,106.95876288659795L43.75,105.67010309278352L43.75,104.38144329896909L43.75,103.09278350515466L43.75,101.80412371134024L43.75,100.51546391752575L48.12500000000001,99.22680412371132L48.12500000000001,97.93814432989689L48.12500000000001,96.64948453608247L48.12500000000001,95.36082474226804L48.12500000000001,94.0721649484536L48.12500000000001,92.78350515463917L48.12500000000001,91.49484536082475L48.12500000000001,90.20618556701032L52.5,88.91752577319589L52.5,87.62886597938146L52.5,86.34020618556704L52.5,85.05154639175255L52.5,83.76288659793812L52.5,82.4742268041237L56.875,81.18556701030927L56.875,79.89690721649484L56.875,78.6082474226804L56.875,77.31958762886599L56.875,76.03092783505156L56.875,74.74226804123712L56.875,73.4536082474227L56.875,72.16494845360828L56.875,70.87628865979384L56.875,69.58762886597935L56.875,68.29896907216492L61.24999999999999,67.0103092783505L61.24999999999999,65.72164948453607L61.24999999999999,64.43298969072164L61.24999999999999,63.144329896907216L61.24999999999999,61.855670103092784L61.24999999999999,60.56701030927836L61.24999999999999,59.27835051546393L65.625,57.9896907216495L65.625,56.70103092783507L65.625,55.412371134020646L70,54.12371134020616L70,52.83505154639173L70,51.5463917525773L70,50.257731958762875L70,48.96907216494844L74.375,47.68041237113402L74.375,46.391752577319586L74.375,45.10309278350516L74.375,43.81443298969073L74.375,42.525773195876305L74.375,41.23711340206187L78.75,39.94845360824745L78.75,38.659793814432966L83.125,37.371134020618534L83.125,36.08247422680411L83.125,34.79381443298968L83.125,33.50515463917525L83.125,32.21649484536082L83.125,30.927835051546392L83.125,29.639175257731964L87.5,28.350515463917535L87.5,27.061855670103107L87.5,25.77319587628868L87.5,24.48453608247425L96.25000000000001,23.19587628865977L96.25000000000001,21.90721649484534L100.62499999999999,20.61855670103091L100.62499999999999,19.329896907216483L105,18.041237113402055L109.375,16.752577319587626L113.75,15.463917525773196L113.75,14.175257731958768L118.12500000000001,12.88659793814434L135.625,11.59793814432991L140,10.309278350515482L144.375,9.020618556701054L175,7.7319587628865705L210,6.443298969072142L231.875,5.154639175257714L323.75,3.8659793814432852L358.74999999999994,2.577319587628857L385.00000000000006,1.2886597938144284L621.25,0" stroke="#4c78a8" stroke-width="2"/></g><g class="mark-group role-title"><g transform="translate(350,-22)"><path class="background" aria-hidden="true" d="M0,0h0v0h0Z" pointer-events="none"/><g><g class="mark-text role-title-text" role="graphics-symbol" aria-roledescription="title" aria-label="Title text 'CDF of the Number of Figures per Notebooks'" pointer-events="none"><text text-anchor="middle" transform="translate(0,10)" font-family="sans-serif" font-size="13px" font-weight="bold" fill="#000" opacity="1">CDF of the Number of Figures per Notebooks</text></g></g><path class="foreground" aria-hidden="true" d="" pointer-events="none" display="none"/></g></g></g><path class="foreground" aria-hidden="true" d="" display="none"/></g></g></g></svg>